<svg xmlns="http://www.w3.org/2000/svg" viewBox="0 0 940 570" width="940" height="570" font-family="'Helvetica Neue', Arial, sans-serif">
  <defs>
    <linearGradient id="scr" x1="0" y1="0" x2="0" y2="1">
      <stop offset="0" stop-color="#1E9457"/><stop offset="1" stop-color="#0F5A34"/>
    </linearGradient>
    <radialGradient id="flood" cx="0.4" cy="-0.05" r="0.8">
      <stop offset="0" stop-color="#EAF7EC" stop-opacity="0.13"/><stop offset="1" stop-color="#EAF7EC" stop-opacity="0"/>
    </radialGradient>
    <radialGradient id="vig" cx="0.5" cy="0.45" r="0.8">
      <stop offset="0.5" stop-color="#000" stop-opacity="0"/><stop offset="1" stop-color="#04250F" stop-opacity="0.72"/>
    </radialGradient>
    <filter id="capglow" x="-40%" y="-40%" width="180%" height="180%">
      <feDropShadow dx="0" dy="0" stdDeviation="4" flood-color="#F2C14E" flood-opacity="0.6"/>
    </filter>
    <filter id="lift" x="-20%" y="-20%" width="140%" height="140%">
      <feDropShadow dx="0" dy="5" stdDeviation="10" flood-color="#03180C" flood-opacity="0.5"/>
    </filter>
    <!-- soccer ball — Twemoji (CC-BY 4.0), see README credits -->
    <symbol id="ball" viewBox="0 0 36 36">
      <circle fill="#F5F8FA" cx="18" cy="18" r="18"/>
      <path fill="#CCD6DD" d="M18 11c-.552 0-1-.448-1-1V3c0-.552.448-1 1-1s1 .448 1 1v7c0 .552-.448 1-1 1zm-6.583 4.5c-.1 0-.202-.015-.302-.047l-8.041-2.542c-.527-.167-.819-.728-.652-1.255.166-.527.73-.818 1.255-.652l8.042 2.542c.527.167.819.729.652 1.255-.136.426-.53.699-.954.699zm13.625-.291c-.434 0-.833-.285-.96-.722-.154-.531.151-1.085.682-1.239l6.75-1.958c.531-.153 1.085.153 1.238.682.154.531-.151 1.085-.682 1.239l-6.75 1.958c-.092.027-.186.04-.278.04zm2.001 14.958c-.306 0-.606-.14-.803-.403l-5.459-7.333c-.33-.442-.238-1.069.205-1.399.442-.331 1.069-.238 1.399.205l5.459 7.333c.33.442.238 1.069-.205 1.399-.179.134-.389.198-.596.198zm-18.294-.083c-.197 0-.395-.058-.57-.179-.454-.316-.565-.938-.25-1.392l5.125-7.375c.315-.454.938-.566 1.392-.251.454.315.565.939.25 1.392l-5.125 7.375c-.194.281-.506.43-.822.43zM3.5 27.062c-.44 0-.844-.293-.965-.738L.347 18.262c-.145-.533.17-1.082.704-1.227.535-.141 1.083.171 1.227.704l2.188 8.062c.145.533-.17 1.082-.704 1.226-.088.025-.176.035-.262.035zM22 34h-9c-.552 0-1-.447-1-1s.448-1 1-1h9c.553 0 1 .447 1 1s-.447 1-1 1zm10.126-6.875c-.079 0-.16-.009-.24-.029-.536-.132-.864-.674-.731-1.21l2.125-8.625c.133-.536.679-.862 1.21-.732.536.132.864.674.731 1.211l-2.125 8.625c-.113.455-.521.76-.97.76zM30.312 7.688c-.17 0-.342-.043-.5-.134L22.25 3.179c-.478-.277-.642-.888-.364-1.367.275-.478.886-.643 1.366-.365l7.562 4.375c.478.277.642.888.364 1.367-.185.32-.521.499-.866.499zm-24.811 0c-.312 0-.618-.145-.813-.417-.322-.45-.22-1.074.229-1.396l6.188-4.438c.449-.322 1.074-.219 1.396.229.322.449.219 1.074-.229 1.396L6.083 7.5c-.177.126-.38.188-.582.188z"/>
      <path fill="#31373D" d="M25.493 13.516l-7.208-5.083c-.348-.245-.814-.243-1.161.006l-7.167 5.167c-.343.248-.494.684-.375 1.091l2.5 8.583c.124.426.515.72.96.72H22c.43 0 .81-.274.948-.681l2.917-8.667c.141-.419-.011-.881-.372-1.136zM1.292 19.542c.058 0 .117-.005.175-.016.294-.052.55-.233.697-.494l3.375-6c.051-.091.087-.188.108-.291L6.98 6.2c.06-.294-.016-.6-.206-.832C6.584 5.135 6.3 5 6 5h-.428C2.145 8.277 0 12.884 0 18c0 .266.028.525.04.788l.602.514c.182.156.413.24.65.24zm9.325-16.547c.106.219.313.373.553.412l6.375 1.042c.04.006.081.01.121.01.04 0 .081-.003.122-.01l6.084-1c.2-.033.38-.146.495-.314.116-.168.158-.375.118-.575l-.292-1.443C22.26.407 20.18 0 18 0c-2.425 0-4.734.486-6.845 1.356l-.521.95c-.117.213-.123.47-.017.689zm20.517 2.724l-1.504-.095c-.228-.013-.455.076-.609.249-.152.173-.218.402-.175.63l1.167 6.198c.017.086.048.148.093.224 1.492 2.504 3.152 5.301 3.381 5.782.024.084.062.079.114.151.14.195.372.142.612.142h.007c.198 0 .323.094 1.768-.753.001-.083.012-.164.012-.247 0-4.753-1.856-9.064-4.866-12.281zM14.541 33.376c.011-.199-.058-.395-.191-.544l-4.5-5c-.06-.066-.131-.122-.211-.163-5.885-3.069-5.994-3.105-6.066-3.13-.078-.025-.161-.039-.242-.039-.537 0-.695.065-1.185 2.024 2.236 4.149 6.053 7.316 10.644 8.703l1.5-1.333c.149-.132.239-.319.251-.518zm17.833-8.567c-.189-.08-.405-.078-.592.005l-6.083 2.667c-.106.046-.2.116-.274.205l-4.25 5.083c-.129.154-.19.352-.172.552.02.2.117.384.272.51.683.559 1.261 1.03 1.767 1.44 4.437-1.294 8.154-4.248 10.454-8.146l-.712-1.889c-.072-.193-.221-.347-.41-.427z"/>
    </symbol>
  </defs>

  <!-- pitch -->
  <g>
    <rect x="0" y="0" width="118" height="570" fill="#10633A"/><rect x="118" y="0" width="118" height="570" fill="#0D5433"/><rect x="236" y="0" width="118" height="570" fill="#10633A"/><rect x="354" y="0" width="118" height="570" fill="#0D5433"/><rect x="472" y="0" width="118" height="570" fill="#10633A"/><rect x="590" y="0" width="118" height="570" fill="#0D5433"/><rect x="708" y="0" width="118" height="570" fill="#10633A"/><rect x="826" y="0" width="118" height="570" fill="#0D5433"/>
  </g>
  <g stroke="#EAF3EC" stroke-width="1.5" fill="none" opacity="0.2">
    <circle cx="210" cy="300" r="120"/><circle cx="210" cy="300" r="3" fill="#EAF3EC" stroke="none"/>
  </g>
  <rect width="940" height="570" fill="url(#flood)"/>
  <rect width="940" height="570" fill="url(#vig)"/>

  <!-- title: crest ball + wordmark -->
  <use href="#ball" x="34" y="36" width="28" height="28"/>
  <text x="72" y="56" font-size="22" font-weight="800" letter-spacing="0.3" fill="#F2F7F3">Vertical layout</text>
  <text x="900" y="52" text-anchor="end" font-size="12" font-weight="700" letter-spacing="1.5" fill="#F2C14E" font-family="'SF Mono','JetBrains Mono',Menlo,Consolas,monospace">9:16 · 1080×1920</text>
  <line x1="72" y1="70" x2="230" y2="70" stroke="#F2C14E" stroke-width="2"/>

  <!-- phone (9:16) -->
  <g filter="url(#lift)">
    <polygon points="90,110 312,110 330,128 330,536 90,536" fill="#061C11" stroke="#2A6A47" stroke-width="2"/>
  </g>
  <rect x="100" y="120" width="220" height="406" rx="6" fill="#04140C"/>
  <circle cx="210" cy="134" r="2.6" fill="#1C4B34"/>
  <!-- gameplay clip 16:9 -->
  <rect x="100" y="190" width="220" height="124" fill="url(#scr)"/>
  <g stroke="#EAF3EC" stroke-width="1.1" opacity="0.6" fill="none"><line x1="210" y1="190" x2="210" y2="314"/><circle cx="210" cy="252" r="19"/></g>
  <circle cx="168" cy="238" r="5.5" fill="#0A2417" stroke="#F5F8F4" stroke-width="1.3"/>
  <circle cx="252" cy="272" r="3" fill="#F5F8F4"/>
  <!-- gold caption frame + abstract caption -->
  <g filter="url(#capglow)">
    <rect x="120" y="372" width="180" height="56" rx="13" fill="#0A2417" stroke="#F2C14E" stroke-width="2.4"/>
  </g>
  <rect x="136" y="388" width="148" height="6.5" rx="3.2" fill="#F2C14E" opacity="0.85"/>
  <rect x="136" y="402" width="96" height="6.5" rx="3.2" fill="#F2C14E" opacity="0.5"/>
  <!-- dimension ticks -->
  <g stroke="#8FB7A0" stroke-width="1" fill="none" opacity="0.7">
    <path d="M90,548 L90,554 L330,554 L330,548"/><path d="M74,110 L68,110 L68,536 L74,536"/>
  </g>
  <text x="210" y="566" font-size="11" fill="#CFE3D6" text-anchor="middle" font-family="'SF Mono','JetBrains Mono',Menlo,Consolas,monospace">1080 px</text>
  <text x="58" y="323" font-size="11" fill="#CFE3D6" text-anchor="middle" font-family="'SF Mono','JetBrains Mono',Menlo,Consolas,monospace" transform="rotate(-90,58,323)">1920 px</text>

  <!-- callouts -->
  <g stroke="#F2C14E" stroke-width="1.3" fill="none" opacity="0.85">
    <line x1="330" y1="150" x2="392" y2="150"/><line x1="330" y1="252" x2="392" y2="252"/><line x1="300" y1="400" x2="392" y2="400"/>
  </g>
  <g fill="#F2C14E"><rect x="327" y="147" width="6" height="6"/><rect x="327" y="249" width="6" height="6"/><rect x="297" y="397" width="6" height="6"/></g>

  <rect x="402" y="139" width="7" height="7" fill="#F2C14E"/>
  <text x="420" y="147" font-size="15" font-weight="700" fill="#F2F7F3">Solid black bars</text>
  <text x="420" y="167" font-size="12" fill="#A9C6B5">top &amp; bottom — clean safe area</text>

  <rect x="402" y="241" width="7" height="7" fill="#F2C14E"/>
  <text x="420" y="249" font-size="15" font-weight="700" fill="#F2F7F3">Gameplay clip · 16:9</text>
  <text x="420" y="269" font-size="12" fill="#A9C6B5">centered · original audio muted</text>

  <rect x="402" y="389" width="7" height="7" fill="#F2C14E"/>
  <text x="420" y="397" font-size="15" font-weight="700" fill="#F2F7F3">Gold caption frame</text>
  <text x="420" y="417" font-size="12" fill="#A9C6B5">the signature look on every segment</text>
  <text x="420" y="437" font-size="12" fill="#A9C6B5">burned in · any language ·</text>
  <text x="420" y="455" font-size="12" fill="#A9C6B5">CJK via the bundled macOS fonts</text>
</svg>
