<svg xmlns="http://www.w3.org/2000/svg" viewBox="0 0 1280 640" width="1280" height="640" font-family="'Helvetica Neue', Arial, sans-serif">
  <defs>
    <linearGradient id="card" x1="0" y1="0" x2="0" y2="1">
      <stop offset="0" stop-color="#0C2C1C"/><stop offset="1" stop-color="#08200F"/>
    </linearGradient>
    <linearGradient id="engine" x1="0" y1="0" x2="0" y2="1">
      <stop offset="0" stop-color="#0E3220"/><stop offset="1" stop-color="#082314"/>
    </linearGradient>
    <linearGradient id="scr" x1="0" y1="0" x2="0" y2="1">
      <stop offset="0" stop-color="#1E9457"/><stop offset="1" stop-color="#0F5A34"/>
    </linearGradient>
    <linearGradient id="goldFade" gradientUnits="userSpaceOnUse" x1="410" y1="0" x2="760" y2="0">
      <stop offset="0" stop-color="#F2C14E"/><stop offset="1" stop-color="#F2C14E" stop-opacity="0"/>
    </linearGradient>
    <radialGradient id="vig" cx="0.5" cy="0.45" r="0.75">
      <stop offset="0.5" stop-color="#000" stop-opacity="0"/><stop offset="1" stop-color="#04250F" stop-opacity="0.7"/>
    </radialGradient>
    <radialGradient id="flood" cx="0.44" cy="-0.05" r="0.72">
      <stop offset="0" stop-color="#EAF7EC" stop-opacity="0.14"/><stop offset="1" stop-color="#EAF7EC" stop-opacity="0"/>
    </radialGradient>
    <radialGradient id="eglow" cx="0.5" cy="0.5" r="0.5">
      <stop offset="0" stop-color="#F2C14E" stop-opacity="0.22"/><stop offset="1" stop-color="#F2C14E" stop-opacity="0"/>
    </radialGradient>
    <!-- soccer ball — Twemoji (CC-BY 4.0), see README credits -->
    <symbol id="ball" viewBox="0 0 36 36">
      <circle fill="#F5F8FA" cx="18" cy="18" r="18"/>
      <path fill="#CCD6DD" d="M18 11c-.552 0-1-.448-1-1V3c0-.552.448-1 1-1s1 .448 1 1v7c0 .552-.448 1-1 1zm-6.583 4.5c-.1 0-.202-.015-.302-.047l-8.041-2.542c-.527-.167-.819-.728-.652-1.255.166-.527.73-.818 1.255-.652l8.042 2.542c.527.167.819.729.652 1.255-.136.426-.53.699-.954.699zm13.625-.291c-.434 0-.833-.285-.96-.722-.154-.531.151-1.085.682-1.239l6.75-1.958c.531-.153 1.085.153 1.238.682.154.531-.151 1.085-.682 1.239l-6.75 1.958c-.092.027-.186.04-.278.04zm2.001 14.958c-.306 0-.606-.14-.803-.403l-5.459-7.333c-.33-.442-.238-1.069.205-1.399.442-.331 1.069-.238 1.399.205l5.459 7.333c.33.442.238 1.069-.205 1.399-.179.134-.389.198-.596.198zm-18.294-.083c-.197 0-.395-.058-.57-.179-.454-.316-.565-.938-.25-1.392l5.125-7.375c.315-.454.938-.566 1.392-.251.454.315.565.939.25 1.392l-5.125 7.375c-.194.281-.506.43-.822.43zM3.5 27.062c-.44 0-.844-.293-.965-.738L.347 18.262c-.145-.533.17-1.082.704-1.227.535-.141 1.083.171 1.227.704l2.188 8.062c.145.533-.17 1.082-.704 1.226-.088.025-.176.035-.262.035zM22 34h-9c-.552 0-1-.447-1-1s.448-1 1-1h9c.553 0 1 .447 1 1s-.447 1-1 1zm10.126-6.875c-.079 0-.16-.009-.24-.029-.536-.132-.864-.674-.731-1.21l2.125-8.625c.133-.536.679-.862 1.21-.732.536.132.864.674.731 1.211l-2.125 8.625c-.113.455-.521.76-.97.76zM30.312 7.688c-.17 0-.342-.043-.5-.134L22.25 3.179c-.478-.277-.642-.888-.364-1.367.275-.478.886-.643 1.366-.365l7.562 4.375c.478.277.642.888.364 1.367-.185.32-.521.499-.866.499zm-24.811 0c-.312 0-.618-.145-.813-.417-.322-.45-.22-1.074.229-1.396l6.188-4.438c.449-.322 1.074-.219 1.396.229.322.449.219 1.074-.229 1.396L6.083 7.5c-.177.126-.38.188-.582.188z"/>
      <path fill="#31373D" d="M25.493 13.516l-7.208-5.083c-.348-.245-.814-.243-1.161.006l-7.167 5.167c-.343.248-.494.684-.375 1.091l2.5 8.583c.124.426.515.72.96.72H22c.43 0 .81-.274.948-.681l2.917-8.667c.141-.419-.011-.881-.372-1.136zM1.292 19.542c.058 0 .117-.005.175-.016.294-.052.55-.233.697-.494l3.375-6c.051-.091.087-.188.108-.291L6.98 6.2c.06-.294-.016-.6-.206-.832C6.584 5.135 6.3 5 6 5h-.428C2.145 8.277 0 12.884 0 18c0 .266.028.525.04.788l.602.514c.182.156.413.24.65.24zm9.325-16.547c.106.219.313.373.553.412l6.375 1.042c.04.006.081.01.121.01.04 0 .081-.003.122-.01l6.084-1c.2-.033.38-.146.495-.314.116-.168.158-.375.118-.575l-.292-1.443C22.26.407 20.18 0 18 0c-2.425 0-4.734.486-6.845 1.356l-.521.95c-.117.213-.123.47-.017.689zm20.517 2.724l-1.504-.095c-.228-.013-.455.076-.609.249-.152.173-.218.402-.175.63l1.167 6.198c.017.086.048.148.093.224 1.492 2.504 3.152 5.301 3.381 5.782.024.084.062.079.114.151.14.195.372.142.612.142h.007c.198 0 .323.094 1.768-.753.001-.083.012-.164.012-.247 0-4.753-1.856-9.064-4.866-12.281zM14.541 33.376c.011-.199-.058-.395-.191-.544l-4.5-5c-.06-.066-.131-.122-.211-.163-5.885-3.069-5.994-3.105-6.066-3.13-.078-.025-.161-.039-.242-.039-.537 0-.695.065-1.185 2.024 2.236 4.149 6.053 7.316 10.644 8.703l1.5-1.333c.149-.132.239-.319.251-.518zm17.833-8.567c-.189-.08-.405-.078-.592.005l-6.083 2.667c-.106.046-.2.116-.274.205l-4.25 5.083c-.129.154-.19.352-.172.552.02.2.117.384.272.51.683.559 1.261 1.03 1.767 1.44 4.437-1.294 8.154-4.248 10.454-8.146l-.712-1.889c-.072-.193-.221-.347-.41-.427z"/>
    </symbol>
    <marker id="pass" markerWidth="8" markerHeight="8" refX="6" refY="4" orient="auto">
      <path d="M1,1 L7,4 L1,7 Z" fill="#F2C14E"/>
    </marker>
    <filter id="lift" x="-20%" y="-20%" width="140%" height="140%">
      <feDropShadow dx="0" dy="6" stdDeviation="12" flood-color="#03180C" flood-opacity="0.55"/>
    </filter>
  </defs>

  <!-- ===== pitch: mowing stripes ===== -->
  <g>
    <rect x="0"    y="0" width="160" height="640" fill="#10633A"/>
    <rect x="160"  y="0" width="160" height="640" fill="#0D5433"/>
    <rect x="320"  y="0" width="160" height="640" fill="#10633A"/>
    <rect x="480"  y="0" width="160" height="640" fill="#0D5433"/>
    <rect x="640"  y="0" width="160" height="640" fill="#10633A"/>
    <rect x="800"  y="0" width="160" height="640" fill="#0D5433"/>
    <rect x="960"  y="0" width="160" height="640" fill="#10633A"/>
    <rect x="1120" y="0" width="160" height="640" fill="#0D5433"/>
  </g>
  <!-- pitch markings -->
  <g stroke="#EAF3EC" stroke-width="1.6" fill="none" opacity="0.26">
    <line x1="618" y1="8" x2="618" y2="632"/>
    <circle cx="618" cy="316" r="118"/>
    <circle cx="618" cy="316" r="3" fill="#EAF3EC" stroke="none"/>
    <!-- right penalty area (the goal / outputs third) -->
    <line x1="1272" y1="120" x2="1272" y2="512"/>
    <path d="M1000,120 L1272,120 M1000,512 L1272,512 M1000,120 L1000,512"/>
    <path d="M1150,236 L1272,236 M1150,396 L1272,396 M1150,236 L1150,396"/>
    <path d="M1000,272 A70,70 0 0 1 1000,360"/>
    <circle cx="1088" cy="316" r="3" fill="#EAF3EC" stroke="none"/>
    <!-- corner arcs -->
    <path d="M0,20 A20,20 0 0 0 20,0"/><path d="M1260,0 A20,20 0 0 0 1280,20"/>
    <path d="M0,620 A20,20 0 0 1 20,640"/><path d="M1260,640 A20,20 0 0 1 1280,620"/>
    <!-- goal -->
    <rect x="1272" y="286" width="8" height="60"/>
  </g>
  <rect width="1280" height="640" fill="url(#flood)"/>
  <rect width="1280" height="640" fill="url(#vig)"/>

  <!-- ===== crest logo ===== -->
  <circle cx="82" cy="64" r="23" fill="#08200F" stroke="#F2C14E" stroke-width="2"/>
  <use href="#ball" x="66" y="48" width="32" height="32"/>
  <text x="118" y="60" font-size="25" font-weight="800" letter-spacing="0.3" fill="#F2F7F3">FcMobile</text>
  <text x="119" y="80" font-size="11" font-weight="700" letter-spacing="2.5" fill="#F2C14E">PLAYER-REVIEW PIPELINE</text>
  <text x="1272" y="54" text-anchor="end" font-size="12" font-weight="700" letter-spacing="2.5" fill="#CFE3D6" opacity="0.8">ONE COMMAND · TWO MASTERS</text>

  <!-- ===== zone eyebrows (chalk) ===== -->
  <text x="56"  y="126" font-size="11" font-weight="700" letter-spacing="2.5" fill="#CFE3D6" opacity="0.75">BUILD-UP · INPUTS</text>
  <text x="372" y="126" font-size="11" font-weight="700" letter-spacing="2.5" fill="#CFE3D6" opacity="0.75">MIDFIELD · ENGINE</text>
  <text x="1000" y="126" font-size="11" font-weight="700" letter-spacing="2.5" fill="#CFE3D6" opacity="0.75">FINISH · OUTPUTS</text>

  <!-- ===== INPUT cards ===== -->
  <g filter="url(#lift)">
    <rect x="56" y="152" width="244" height="76" rx="10" fill="url(#card)" stroke="#1F5B3C" stroke-width="1.2"/>
    <rect x="56" y="246" width="244" height="76" rx="10" fill="url(#card)" stroke="#1F5B3C" stroke-width="1.2"/>
    <rect x="56" y="340" width="244" height="76" rx="10" fill="url(#card)" stroke="#1F5B3C" stroke-width="1.2"/>
  </g>
  <g fill="#F2C14E"><rect x="56" y="152" width="4" height="76" rx="2"/><rect x="56" y="246" width="4" height="76" rx="2"/><rect x="56" y="340" width="4" height="76" rx="2"/></g>
  <g font-family="'SF Mono','JetBrains Mono',Menlo,Consolas,monospace" font-weight="700" font-size="16" fill="#F2F7F3">
    <text x="78" y="186">edl.json</text><text x="78" y="280">clips/</text><text x="78" y="374">utils/</text>
  </g>
  <g font-size="11.5" fill="#A9C6B5">
    <text x="78" y="208">order · captions · focus · bgm</text>
    <text x="78" y="302">pre-cut gameplay · .MOV</text>
    <text x="78" y="396">shared engine · never edited</text>
  </g>

  <!-- passing arrows: build-up -> engine -->
  <g fill="none" stroke="#F2C14E" stroke-width="2" stroke-dasharray="7 5" opacity="0.9">
    <path d="M300,190 C328,190 330,244 346,248" marker-end="url(#pass)"/>
    <path d="M300,284 C326,284 332,276 346,276" marker-end="url(#pass)"/>
    <path d="M300,378 C328,378 330,308 346,304" marker-end="url(#pass)"/>
  </g>

  <!-- ===== ENGINE card (on the centre circle) ===== -->
  <ellipse cx="618" cy="278" rx="336" ry="184" fill="url(#eglow)"/>
  <g filter="url(#lift)">
    <rect x="348" y="150" width="540" height="250" rx="14" fill="url(#engine)" stroke="#F2C14E" stroke-width="1.5" stroke-opacity="0.55"/>
  </g>
  <rect x="348" y="150" width="540" height="4" rx="2" fill="#F2C14E"/>
  <rect x="356" y="158" width="524" height="234" rx="10" fill="none" stroke="#F2C14E" stroke-width="1" stroke-opacity="0.22"/>
  <!-- header: ball + name -->
  <use href="#ball" x="375" y="171" width="26" height="26"/>
  <text x="410" y="190" font-size="18" font-weight="700" fill="#F2F7F3" font-family="'SF Mono','JetBrains Mono',Menlo,Consolas,monospace">make_video.py</text>
  <text x="410" y="209" font-size="10.5" font-weight="700" letter-spacing="1.5" fill="#6E9480">ONE COMMAND · VERTICAL + LANDSCAPE 4K</text>
  <line x1="372" y1="222" x2="864" y2="222" stroke="#1F5B3C" stroke-width="1"/>

  <!-- fixed render sequence 01-04 -->
  <g>
    <text x="372" y="262" font-size="23" font-weight="800" fill="#D9A02E">01</text>
    <text x="406" y="253" font-size="13" font-weight="700" fill="#F2F7F3">INTRO</text>
    <text x="406" y="270" font-size="10.5" fill="#A9C6B5">lineup → card zoom</text>
    <text x="496" y="262" font-size="23" font-weight="800" fill="#D9A02E">02</text>
    <text x="530" y="253" font-size="13" font-weight="700" fill="#F2F7F3">STAT</text>
    <rect x="566" y="243" width="30" height="13" rx="2" fill="none" stroke="#6E9480" stroke-width="0.9"/>
    <text x="581" y="253" font-size="8" font-weight="700" letter-spacing="0.5" fill="#A9C6B5" text-anchor="middle">OPT</text>
    <text x="530" y="270" font-size="10.5" fill="#A9C6B5">held card</text>
    <text x="620" y="262" font-size="23" font-weight="800" fill="#D9A02E">03</text>
    <text x="654" y="253" font-size="13" font-weight="700" fill="#F2F7F3">SEGMENTS</text>
    <text x="654" y="270" font-size="10.5" fill="#A9C6B5">captions · in order</text>
    <text x="744" y="262" font-size="23" font-weight="800" fill="#D9A02E">04</text>
    <text x="778" y="253" font-size="13" font-weight="700" fill="#F2F7F3">OUTRO</text>
    <text x="778" y="270" font-size="10.5" fill="#A9C6B5">Apple-style end</text>
  </g>
  <!-- move / dribble line through the stages -->
  <line x1="372" y1="298" x2="856" y2="298" stroke="#D9A02E" stroke-width="1.6" marker-end="url(#pass)"/>
  <g fill="#F2C14E"><circle cx="372" cy="298" r="4"/><circle cx="496" cy="298" r="4"/><circle cx="620" cy="298" r="4"/><circle cx="744" cy="298" r="4"/></g>
  <text x="614" y="320" font-size="11" fill="#A9C6B5" text-anchor="middle">every seam cross-fades — never a hard cut</text>
  <!-- BGM audio track (waveform that fades out before the outro) -->
  <text x="372" y="356" font-size="11" font-weight="700" letter-spacing="1" fill="#D9A02E" font-family="'SF Mono','JetBrains Mono',Menlo,Consolas,monospace">BGM</text>
  <g stroke="#F2C14E" stroke-width="2.6" stroke-linecap="round">
    <g opacity="0.95">
      <line x1="418" y1="348" x2="418" y2="356"/><line x1="426" y1="345" x2="426" y2="359"/><line x1="435" y1="341" x2="435" y2="363"/><line x1="443" y1="346" x2="443" y2="358"/><line x1="452" y1="343" x2="452" y2="361"/><line x1="460" y1="338" x2="460" y2="366"/><line x1="469" y1="344" x2="469" y2="360"/><line x1="477" y1="347" x2="477" y2="357"/><line x1="486" y1="340" x2="486" y2="364"/><line x1="494" y1="336" x2="494" y2="368"/><line x1="503" y1="343" x2="503" y2="361"/><line x1="511" y1="346" x2="511" y2="358"/><line x1="520" y1="339" x2="520" y2="365"/><line x1="528" y1="335" x2="528" y2="369"/><line x1="537" y1="342" x2="537" y2="362"/><line x1="545" y1="345" x2="545" y2="359"/><line x1="554" y1="337" x2="554" y2="367"/><line x1="562" y1="341" x2="562" y2="363"/><line x1="571" y1="346" x2="571" y2="358"/><line x1="579" y1="340" x2="579" y2="364"/><line x1="588" y1="336" x2="588" y2="368"/><line x1="596" y1="343" x2="596" y2="361"/>
    </g>
    <g opacity="0.62">
      <line x1="605" y1="347" x2="605" y2="357"/><line x1="613" y1="341" x2="613" y2="363"/><line x1="622" y1="344" x2="622" y2="360"/><line x1="630" y1="348" x2="630" y2="356"/><line x1="639" y1="345" x2="639" y2="359"/><line x1="647" y1="349" x2="647" y2="355"/>
    </g>
    <g opacity="0.3">
      <line x1="656" y1="349" x2="656" y2="355"/><line x1="664" y1="350" x2="664" y2="354"/><line x1="673" y1="351" x2="673" y2="353"/><line x1="681" y1="351.5" x2="681" y2="352.5"/>
    </g>
  </g>
  <text x="864" y="348" text-anchor="end" font-size="10.5" fill="#6E9480">clip audio muted</text>
  <text x="864" y="363" text-anchor="end" font-size="10.5" fill="#6E9480">fades before the outro</text>

  <!-- passing arrows: engine -> finish -->
  <g fill="none" stroke="#F2C14E" stroke-width="2" stroke-dasharray="7 5" opacity="0.9">
    <path d="M888,262 C930,262 966,258 1012,262" marker-end="url(#pass)"/>
    <path d="M888,320 C930,360 900,500 936,506" marker-end="url(#pass)"/>
  </g>

  <!-- ===== OUTPUT: phone 9:16 ===== -->
  <g filter="url(#lift)">
    <rect x="1016" y="156" width="132" height="234" rx="18" fill="#061C11" stroke="#2A6A47" stroke-width="1.8"/>
  </g>
  <rect x="1025" y="165" width="114" height="216" rx="10" fill="#04140C"/>
  <rect x="1025" y="210" width="114" height="96" fill="url(#scr)"/>
  <g stroke="#EAF3EC" stroke-width="1" opacity="0.55" fill="none"><line x1="1082" y1="210" x2="1082" y2="306"/><circle cx="1082" cy="258" r="15"/></g>
  <circle cx="1082" cy="258" r="2.5" fill="#F5F8F4"/>
  <rect x="1037" y="334" width="90" height="34" rx="8" fill="#0A2417" stroke="#F2C14E" stroke-width="1.8"/>
  <rect x="1047" y="344" width="70" height="4.5" rx="2.2" fill="#F2C14E" opacity="0.85"/>
  <rect x="1047" y="353" width="46" height="4.5" rx="2.2" fill="#F2C14E" opacity="0.5"/>
  <text x="1082" y="408" font-size="12" font-weight="700" letter-spacing="1" fill="#F2F7F3" text-anchor="middle">VERTICAL</text>
  <text x="1082" y="424" font-size="10.5" fill="#A9C6B5" text-anchor="middle">1080×1920 · RED / Douyin</text>

  <!-- ===== OUTPUT: monitor 4K ===== -->
  <g filter="url(#lift)">
    <rect x="940" y="442" width="284" height="132" rx="10" fill="#061C11" stroke="#2A6A47" stroke-width="1.8"/>
  </g>
  <rect x="950" y="452" width="264" height="112" rx="5" fill="url(#scr)"/>
  <g stroke="#EAF3EC" stroke-width="1" opacity="0.5" fill="none"><line x1="1082" y1="452" x2="1082" y2="564"/><circle cx="1082" cy="508" r="20"/></g>
  <rect x="966" y="544" width="70" height="10" rx="3" fill="#0A2417" stroke="#F2C14E" stroke-width="1.4"/>
  <rect x="1066" y="574" width="72" height="6" rx="2" fill="#061C11"/>
  <text x="1082" y="598" font-size="12" font-weight="700" letter-spacing="1" fill="#F2F7F3" text-anchor="middle">LANDSCAPE 4K</text>
  <text x="1082" y="614" font-size="10.5" fill="#A9C6B5" text-anchor="middle">3840×1772 · Bilibili</text>
</svg>
